# xmcd CD database file
#
# Track frame offsets:
#	150
#	27060
#	68620
#	97455
#	137037
#	162737
#	190505
#	215460
#	250992
#
# Disc length: 3758 seconds
#
# Revision: 1
# Processed by: cddbd v1.5.1PL0 Copyright (c) Steve Scherf et al.
# Submitted via: CDex 1.51
#
DISCID=800eac09
DTITLE=John Fedchock - Hit The Bricks
DYEAR=2000
DGENRE=Jazz
TTITLE0=This Just In
TTITLE1=Moon Alley
TTITLE2=Steps EnTrois(Giant Steps)
TTITLE3=Twilight
TTITLE4=Hit The Bricks
TTITLE5=Cool Customer
TTITLE6=I'm Thru With Love
TTITLE7=Empty Promises
TTITLE8=Brazilian Fantasy
EXTD=YEAR: 2000
EXTT0=
EXTT1=
EXTT2=
EXTT3=
EXTT4=
EXTT5=
EXTT6=
EXTT7=
EXTT8=
PLAYORDER=
